<?xml version="1.0" encoding="utf-8"?>
<!-- Generator: Adobe Illustrator 19.2.1, SVG Export Plug-In . SVG Version: 6.00 Build 0)  -->
<svg version="1.1" id="layer" xmlns="http://www.w3.org/2000/svg" xmlns:xlink="http://www.w3.org/1999/xlink" x="0px" y="0px"
	 viewBox="0 0 652 652" style="enable-background:new 0 0 652 652;" xml:space="preserve">
<style type="text/css">
	.st0{fill:#EE3436;}
</style>
<g>
	<path class="st0" d="M81.8,328.6h19.8V390c0,0-47.7,10.2-72.3-37.4h22.7c0,0,10,15.7,29.9,17.3V328.6z"/>
	<path class="st0" d="M34.7,279.8h26.2c0,0,33.6-27.1,66.1,5.1H30c0,0-16.8,26.8-3.9,62.2h21.5c0,0-12.9-24-3.9-41.7h115.4
		c0,0-8.3-51.5-63.7-55.5C95.4,249.9,53.4,247.6,34.7,279.8"/>
	<path class="st0" d="M107.8,368.8v20.4c0,0,44.6-8.2,53.2-61.3h-20C141,327.9,137.9,358.5,107.8,368.8"/>
	<path class="st0" d="M91.6,327c5.5,0,10-4.4,10-10c0-5.6-4.5-10.1-10-10.1c-5.5,0-10,4.5-10,10.1C81.6,322.6,86.1,327,91.6,327"/>
	<path class="st0" d="M497.6,381.8c0,0,0-1.5,0.7-3c0,0,0.2-0.6,1.4,0.2c0,0,2.1,0.5,3.3,4.8c0,0,1,4.5-1.5,4.8h-6.6
		c0,0-0.6-1.8,0.2-3.5h5.5c0,0,0.8-0.4-0.2-1.2C500.4,384,499.5,382.8,497.6,381.8"/>
	<path class="st0" d="M595.8,372.8c0,0-0.5,2.1,1.4,2.7c0,0,3.6,1.5,1.9,2c0,0-1.7,1.9-1.6,3.4c0,0,0,1.4,0.3,2.1
		c0,0,0.8,3.3-0.8,5.7h-8.5c0-0.3-0.6-0.8-0.9-0.9c-0.2,0-0.4,0-0.5,0c0,0-0.3,0-0.4,0.8h-0.4h-10.7c0,0-0.2-0.8-0.6,0h-5.6
		c0,0-0.4-0.9-1-0.3c0,0-0.2,0.1-0.3,0.4h-5.2c0,0-0.5-0.4-1.1-1c0,0-0.4-0.6-0.6,0c0,0-0.5,0.4-0.4,1h-11.1c0,0-2.8-0.7-1.5-5.9
		c0,0,0.2-1.5,1.5-2.3c0,0,0.5-0.4,0.3,0.5c0,0-1.4,3.3,0.9,4.5H561V384c0,0,0-1.5,1-2.4c0,0,1-1.2,1.5-1.4v3.1v1.3
		c0,0-0.1,0.5,0.4,0.7h5l0.1-1.5v-0.2l0-0.1c0,0,0-2,1.6-2.7c0,0,0.2-0.1,0.4-0.2c0,0-0.3,3.8-0.4,4.7h-0.1h4.3c0,0-0.1-0.7,0.2-1.6
		c0.3-0.9,0.6-2,1.6-2.7c0,0,0.4-0.4,0.4,0.3c0,0,0,3.4-0.2,4.1h0h2.2l0-1c0,0-0.3-1,0.3-1.5c0,0,0.8-1.4,1.4-1.8
		c0,0,0.5-0.8,0.5,0.1v4.2h6.2l0-2.3c0,0,0.2-1.4,1-1.9c-0.3,0.1,0.3-0.5,0.6-0.7c0,0,0.4-0.5,0.4,0.1c0,0,0,3.5,0,4.7h0.6h5.3
		c0,0,0.9-0.4,0.1-3.6c0,0-0.4-3.2-1.9-4.5C593.4,377.2,594.2,374.7,595.8,372.8"/>
	
		<rect x="421.9" y="373.8" transform="matrix(0.7072 -0.707 0.707 0.7072 -141.291 409.0262)" class="st0" width="2.7" height="2.7"/>
	<polygon class="st0" points="424,375.1 425.8,377 427.7,375.1 425.8,373.2 	"/>
	<polygon class="st0" points="441.8,376.5 443.6,378.4 445.5,376.5 443.6,374.7 	"/>
	<polygon class="st0" points="444.4,376.5 446.3,378.4 448.1,376.5 446.3,374.7 	"/>
	<polygon class="st0" points="553.3,378.3 555.2,380.2 557.1,378.3 555.2,376.5 	"/>
	<polygon class="st0" points="556,378.3 557.9,380.2 559.7,378.3 557.9,376.5 	"/>
	
		<rect x="583.7" y="391.1" transform="matrix(0.7072 -0.707 0.707 0.7072 -106.1616 528.5214)" class="st0" width="2.7" height="2.7"/>
	<polygon class="st0" points="585.9,392.4 587.7,394.3 589.6,392.4 587.7,390.6 	"/>
	<polygon class="st0" points="519.4,392.4 521.3,394.3 523.1,392.4 521.3,390.6 	"/>
	<polygon class="st0" points="434.9,392.4 436.7,394.3 438.6,392.4 436.7,390.6 	"/>
	<path class="st0" d="M537.1,387.3l0.3-0.5l1.2-0.1c0,0,0.9,0.5,2.1,1V384l-0.9-0.7c0,0,0.4-0.3,0.9-0.2v-2.9c-1.1,0.5-3,1.6-4,4.1
		c0,0,0,1-1.5,1h-4.3c0,0-1,0-0.5-0.8c0,0,0.5-0.7,0.5-1.2c0,0,0.6-0.5-0.6-0.5h-1.9c0,0-1.8,0.2-2.9-0.7c0,0-1.5-0.6-3.1-1.2
		c0,0-2.6-1.4-4.4,0c0,0-1.8,1.5-2.4,3.4c0,0-0.4,0.9,0.4,0.3c0,0,0.9-1.4,3.7-0.9c0,0,1.1,0.5,1.9,0.5c0,0,1.1,0.4,0,0.8
		c0,0-0.6,0-1,0.3h-8c0,0-1.4-0.6-2.6-2.8c0,0-0.7-1.4-1.1-0.6l-1.4,2.4c0,0-0.3,0.3,0.1,0.7l1.6,2c0,0,0.6,0.7-0.1,1
		c0,0-2.9,3.2-4.9,4c0,0-1.6,0.4-2.8-0.3c0,0-1.2-0.9-1.6-0.3c0,0-0.6,0.5,0.6,1.1c0,0,1.5,1.1,3.6,1.7c0,0,1.4,1,3.8-0.1
		c0,0,2.9-1.9,3.8-5.5h7.8c0,0,0.8,0.1,1.6-0.4c0,0,0.9-0.4,1.4-0.9c0,0,0.2-0.5,1.5-0.6h3.5c0,0,0.9-0.2,0.8,0.6v1.2h8.3
		C536.1,388.5,536.4,387.6,537.1,387.3 M540.6,387.7c0.4,0.2,0.9,0.4,1.4,0.5c0,0,0.7,0.6,1.1-0.1c0,0,0.9-1.2,1.3-2.1
		c0,0,0.5-1.1-0.2-2.8c0,0-0.6-1.6-0.8-2.6c0,0-0.6-1.7-2.1-0.6c0,0-0.3,0.1-0.7,0.3v2.9c0.3,0,0.6,0.2,0.9,0.7c0,0,0.1,0.7-0.6,0.4
		l-0.3-0.2V387.7z"/>
	<path class="st0" d="M536.1,374.7c-0.5,0.6-1,1.1-1.3,1.3c-0.6,0.5-1.1,0.7-1.6,0.7l-0.6-0.1l-0.4-0.1l0.9-0.6l0.8-0.5
		c0.3-0.2,0.9-0.7,1.8-1.5l-0.8-0.7c-0.1-0.2-0.2-0.5-0.2-0.7c0-0.5,0.2-1.1,0.6-1.8c0.2-0.4,0.4-0.6,0.6-0.7c0,0,0.1-0.1,0.3-0.1
		v1.3c-0.1,0-0.2,0-0.3-0.1l-0.2,0.1l-0.1,0.3c0,0.2,0.1,0.4,0.2,0.5l0.3,0.3l0.1,0V374.7z M537.8,373.6l-0.1,1.6l-0.6-0.4l-0.7-0.5
		c-0.1,0.1-0.2,0.2-0.3,0.3v-2.3l0.5,0.4l0.1-0.6c0-0.3,0-0.5-0.2-0.6c-0.1-0.1-0.2-0.2-0.4-0.3v-1.3c0.1,0,0.3-0.1,0.5-0.2
		c0.8,0,1.1,0.5,1.1,1.5v0.4l-0.1,0.3l-0.2,0.6l-0.2,0.6l0.4,0.3L537.8,373.6z"/>
	<path class="st0" d="M426.6,387.7C426.6,387.7,426.6,387.7,426.6,387.7c-0.1,0.1-0.6,0.4-1.4,0.1c0,0-1.3-0.7-3-0.6
		c0,0-0.6,0-0.5-1c0,0,0-2.8,1.6-3.9c0,0,1.4-1.1,2.6-1.7c0,0,0.3-0.1,0.6-0.2v2.3c-0.4,0.3-0.5,0.5-0.5,0.5c-0.6,0.3-0.7,1-0.7,1
		h1.3V387.7z M481.5,385.3c0,0,0.6-3.5,4.1-4.8c0,0,0,0,0.1,0v2.6c-0.2,0-0.5,0.1-0.5,0.1c-1.2,0.4,0,0.6,0,0.6l0.1,0
		c0.1,0,0.3,0.1,0.4,0.1v3.5c-0.5-0.2-1.2-0.5-2.4-0.7c0,0-0.8-0.4-1.3,0.6l-1,1.2h-6c0,0-1.6-1.1-1.7-0.4l-0.2,0.4h-25.5
		c0,0-0.7-1.1-1.5-0.4c0,0,0,0.5-0.6,0.5H439h0.1c0,0-1.6-1.3-2.2-0.4v0.3h-7.7c0,0-1.1-0.7-1.1-1.6l-0.1-0.4c0,0,0-0.4-0.5-0.1
		c0,0-0.5,0.8-1,1.3v-3.5h1.2l-0.4-1.6c-0.2-0.7-0.7,0-0.7,0v0c-0.1,0.1-0.1,0.1-0.2,0.2v-2.3c0.2-0.1,0.5-0.3,0.3-0.6
		c0,0-0.5-0.5,0-1.4l1.6-2.5c0,0,0.8,4.7,0.9,7.3c0,0,0.4,2,1,2.1h5.9c0,0,0.5,0.1,0.6-1.1v-1.2l1.9-2.1c0,0,0.4-0.5,0.4-0.1v3.9
		c0,0-0.1,0.6,0.5,0.6h6c0,0,0.4,0.2,0.4-0.6v-1.6l2.1-2.7c0,0,0.4-0.5,0.3,0.1v4c0,0,0.1,0.9,0.8,0.8h21.9l0.3-0.6l-0.6-0.5h-17.9
		c0,0-3,0.3-1.5-2.5c0,0,2.3-4.8,12.4-7.4l-2.2,3.3c0,0-3.3,0.8-6.1,2.7c0,0-1.5,0.7,0,0.7H455h17.6c0,0,1.8,0.4,2.3,2.6
		c0,0,0.4,1.4,0.9,1.6L481.5,385.3z M485.8,380.5c0.6-0.3,2.5-1.4,3,0c0,0,0.6,2.2,1.2,3.5c0,0,0.8,0.9-0.2,1.8c0,0-1.1,1.5-1.1,2.2
		c-0.7,0.2-1.3,0.2-1.9,0c0,0,0-0.3-0.9-0.6V384c0.3,0.1,0.4,0.2,0.4,0.2c1,0.1,0.4-0.6,0.4-0.6c-0.2-0.3-0.6-0.4-0.8-0.4V380.5z"/>
	<path class="st0" d="M605.3,388.6c0.8,0,1.4-0.6,1.4-1.4c0-0.8-0.6-1.4-1.4-1.4c-0.8,0-1.4,0.6-1.4,1.4
		C603.9,388,604.5,388.6,605.3,388.6"/>
	<path class="st0" d="M612.6,388.6c0.8,0,1.4-0.6,1.4-1.4c0-0.8-0.6-1.4-1.4-1.4c-0.8,0-1.4,0.6-1.4,1.4
		C611.2,388,611.8,388.6,612.6,388.6"/>
	<path class="st0" d="M619.9,388.6c0.8,0,1.4-0.6,1.4-1.4c0-0.8-0.6-1.4-1.4-1.4c-0.8,0-1.4,0.6-1.4,1.4
		C618.5,388,619.1,388.6,619.9,388.6"/>
	<path class="st0" d="M174,356.3v6.2c0,0,14.4-1.3,16.5-13.8v-33.6H184c0,0,0.4,26.6-0.2,32C183.8,347,184.3,354,174,356.3"/>
	<path class="st0" d="M193.2,361.3c2.2-21.4,9.4-32.9,15.9-39.1v11.3c-1.6,2.2-3.4,5.3-4.8,9h4.8v7.1h-7.5c-2.1,7-2,11.6-2,11.6
		H193.2z M209.1,322.2c6.3-5.9,12-6.8,12-6.8v45.9h-7.2v-11.6h-4.8v-7.1h4.8v-14.1c0,0-2.3,1.7-4.8,5.1V322.2z"/>
	<path class="st0" d="M226.1,314.6h7.1c1.5,0.1,2.7,0.3,3.9,0.6v7.2c-1.1-0.6-2.6-0.9-4.5-0.9v17.8c0,0,2.2,0.1,4.5-1.1V354
		c-2.6-3.1-3.7-6-3.7-6c-0.7,0.3-0.8,0.1-0.8,0.1V361h-6.5V314.6z M237.1,315.3c10.1,2.7,11,13.4,11,13.4
		c0.7,11.3-8.6,16.1-8.6,16.1c2.3,7.6,9.9,9.7,9.9,9.7v6.4c-5.8-1-9.8-4.1-12.3-7v-15.6c2.3-1.2,4.7-3.7,4.5-9c0,0-0.2-4.8-4.5-6.9
		V315.3z"/>
	<rect x="253.3" y="314.4" class="st0" width="6.9" height="46.6"/>
	<path class="st0" d="M265.7,314.7h7.2c1.4,0.1,2.7,0.3,3.8,0.6v7.3c-1.2-0.6-2.7-1-4.5-1v17.9c0,0,2.3,0,4.5-1.1V354
		c-2.7-3.1-3.8-6.1-3.8-6.1c-0.7,0.4-0.9,0.2-0.9,0.2V361h-6.4V314.7z M276.8,315.2c10,2.7,11,13.4,11,13.4
		c0.7,11.2-8.6,16.1-8.6,16.1c2.3,7.6,9.9,9.7,9.9,9.7v6.5c-5.8-1-9.7-4.1-12.3-7v-15.6c2.4-1.2,4.7-3.7,4.5-9c0,0-0.2-4.7-4.5-6.8
		V315.2z"/>
	<path class="st0" d="M394.4,338c0-9.6,7.7-17.4,17.3-17.4h0v-6.3c-13.1,0-23.6,10.7-23.6,23.9c0,13.1,10.5,23.8,23.6,23.8v-6.6h0
		C402.2,355.3,394.4,347.6,394.4,338 M411.8,320.5c9.6,0,17.3,7.8,17.3,17.4c0,9.6-7.7,17.4-17.3,17.4v6.6
		c13.1,0,23.8-10.7,23.8-23.8c0-13.2-10.7-23.9-23.8-23.9V320.5z"/>
	<path class="st0" d="M345,337.7c0-9.6,7.7-17.5,17.3-17.5V314c-13,0-23.6,10.7-23.6,23.8c0,13.2,10.6,23.9,23.6,23.9v-6.6
		C352.7,355.1,345,347.3,345,337.7 M362.3,320.2L362.3,320.2c9.6,0,17.3,7.8,17.3,17.5c0,9.6-7.7,17.4-17.3,17.4h0v6.6h0
		c13.1,0,23.8-10.7,23.8-23.9c0-13.2-10.7-23.8-23.8-23.8h0V320.2z"/>
	<path class="st0" d="M446.7,345.7v15h-6.5v-45.6h5.9v19.2c0,0,10.3-0.5,13.4-19.2h6c0,0,2,13.5-13.5,24.6c0,0,6.9,14.7,14.8,14.9
		v6.4c0,0-11.8-0.6-19-15.4H446.7z"/>
	<path class="st0" d="M472.2,351.4l-0.6,6.9c0,0,4.6,3.6,9.5,2.9c0,0,12.2-1.1,13.5-13.6c0,0,0.6-7.2-5.3-12.1c0,0-6.1-2.7-9.7-5.3
		c0,0-6-5.1,2.7-9.4c0,0,4.4-0.9,7.1,1.8l0.9-6.6c0,0-3.1-4.1-11.1-1.4c0,0-7.1,2.1-8.2,10.5c0,0-0.9,5.1,4,10.2
		c0,0,3.6,2.8,8.7,4.9c0,0,4.7,1.3,4.1,6.9c0,0-0.3,4.9-5.1,6.8C482.6,353.8,478.5,355.1,472.2,351.4"/>
	<path class="st0" d="M495.5,323.9c0,0,4.1-3.2,8.5-3.2v39.6h7.2v-39.7c0,0,3.7-0.5,8.8,3.6l1.9-6.2c0,0-1.9-4.3-14.5-5
		c0,0-7.2-0.1-15,4.8L495.5,323.9z"/>
	<path class="st0" d="M571.1,360.2v-46.1c0,0,5.5-0.9,11.1,0.8v7c-1.1-0.5-2.6-0.8-4.3-0.7V339c0,0,2.2-0.3,4.3-1.5v16.2
		c-1.3-1.5-2.6-3.2-3.7-5.4h-0.7v12H571.1z M582.2,314.9c5,1.6,10.2,5.3,11.3,13.9c0,0,0.6,9.5-8.8,15.4c0,0-0.9,4.7,9.7,10v6.1
		c0,0-6.6-0.4-12.2-6.6v-16.2c2.2-1.3,4.4-3.8,4.3-8.1c0,0,0-5.5-4.3-7.5V314.9z"/>
	<path class="st0" d="M596.2,335.3c0,0-1,25.1,25,26v-6.5c0,0-15.6-0.3-17.6-14.1h17.6v-6.5h-17.6c0,0,1.5-14,17.6-14.3l-0.2-6.4
		C621,313.4,599,312.8,596.2,335.3"/>
	<path class="st0" d="M527.3,337.5c0-9.6,7.7-17.4,17.3-17.4v-6.3c-13.1,0-23.6,10.7-23.6,23.9c0,13.1,10.5,23.8,23.6,23.8v-6.6
		C535,354.8,527.3,347,527.3,337.5 M544.6,320L544.6,320c9.5,0,17.3,7.8,17.3,17.4c0,9.6-7.8,17.4-17.3,17.4v6.6h0
		c13.1,0,23.7-10.7,23.7-23.8c0-13.2-10.6-23.9-23.7-23.9h0V320z"/>
	<path class="st0" d="M325.9,335.7c-1.4,1.3-2.8,2.1-2.8,2.1c1.1,0.3,2,0.7,2.8,1.2V335.7z M315.1,315.6c0,0,5.6-0.7,10.8,1.2v7.2
		c-1-0.7-2.3-1.2-4.1-1.3v32.1c0,0,2.1,0,4.1-1.1v7c-0.8,0.2-1.8,0.4-2.8,0.5c0,0-4.1,0.5-7.7,0.3L315.1,315.6z M325.9,316.8
		c3.2,1.2,6.4,3.4,8,7.4c0,0,2.5,7.5-1.2,13c0,0,3.2,2.2,3.4,8.3v1.7c0,1.1-0.2,2.3-0.4,3.7c0,0-1.7,7.7-9.8,9.7v-7
		c2.2-1.2,4.4-3.6,4.1-8.4c0,0-0.6-3.9-4.1-6.2v-3.3c1.5-1.5,3.1-3.6,2.8-6c0,0,0.1-3.7-2.8-5.7V316.8z"/>
	<path class="st0" d="M178.8,295.4c0,0,1.9,8.7,12.8,7.6c0,0,9-1.3,11.7-13.1h77.1v-23.8h-8.9v13.5h-68.5V275h-9v14.7
		C194.1,289.7,194.1,300.8,178.8,295.4"/>
	<path class="st0" d="M242.3,303.8c3.1,0,5.6-2.6,5.6-5.6c0-3.2-2.6-5.8-5.6-5.8c-3.2,0-5.6,2.6-5.6,5.8
		C236.7,301.2,239.1,303.8,242.3,303.8"/>
	<path class="st0" d="M254.4,303.8c3.2,0,5.7-2.5,5.7-5.7c0-3.1-2.6-5.7-5.7-5.7c-3.1,0-5.6,2.6-5.6,5.7
		C248.7,301.3,251.3,303.8,254.4,303.8"/>
	<path class="st0" d="M390.1,279.6l-76.5-0.3v-4.8h-9V291c0,0-3.5,9.7-15.3,2.1c0,0,1.9,10.1,12.8,9.1c0,0,9-0.6,11.7-12.4h90.5V280
		h-3.7c0,0,1.2-9.9-9.6-14.3c0,0-15.5-2.6-21.4-5.3c0,0-3.4-1.5-6.3-6.1c0,0-4.2,5,0.6,13c0,0,0.2,3.4,11.3,4.4c0,0,8,0.6,12.6,3.3
		C387.9,275.1,390.7,277,390.1,279.6"/>
	<path class="st0" d="M380.1,303.8c3.1,0,5.6-2.6,5.6-5.7c0-3.2-2.6-5.7-5.6-5.7c-3.2,0-5.6,2.5-5.6,5.7
		C374.5,301.2,377,303.8,380.1,303.8"/>
	<path class="st0" d="M415.5,289.7c0,0-0.1-1.1-0.2-2.9v-1.1c0.1-6.1,2-17.6,14-23.5v11.1c-1.9,2-3.8,4.7-4,7.9h4v8.5H415.5z
		 M429.3,262.2c3.2-1.5,7-2.7,11.7-3.4V281h25.9v-12.5h8.5v12.1h15.4v-12.9h8.6v12.9h74.2c0,0,2.2-2.1-0.6-3.2h-55.7l0.4-8.7
		c0,0,8.9-6.3,7.5-19.1h7.8c0,0,0.3,11.5-4,19.1h47.3c0,0,9.5,0.8,8.3,11.8h16.4c0,0,0.2-9.3,10.1-8.9c0,0,0.1,0,0.4,0v6.9
		c-0.1-0.1-0.3-0.1-0.4-0.1c0,0-0.6,0.1-1.1,2h1.5v9.3H429.3v-8.5h4V270c0,0-2,1.2-4,3.3V262.2z M611.6,271.6c1.6,0,7.4,0.5,9,6.9
		v11.2h-9v-9.3h1.6c0,0-0.4-1.5-1.6-1.9V271.6z"/>
	<path class="st0" d="M414.7,259.5c3.1,0,5.6-2.6,5.6-5.6c0-3.2-2.6-5.7-5.6-5.7c-3.2,0-5.6,2.5-5.6,5.7
		C409.1,257,411.5,259.5,414.7,259.5"/>
	<path class="st0" d="M428.5,259.5c3.2,0,5.6-2.6,5.6-5.6c0-3.2-2.5-5.7-5.6-5.7c-3.1,0-5.6,2.5-5.6,5.7
		C422.9,257,425.5,259.5,428.5,259.5"/>
	<path class="st0" d="M484.2,259.5c3.1,0,5.6-2.5,5.6-5.6c0-3.1-2.6-5.7-5.6-5.7c-3.2,0-5.6,2.6-5.6,5.7
		C478.5,257.1,481,259.5,484.2,259.5"/>
	<path class="st0" d="M499.6,259.5c3.1,0,5.6-2.5,5.6-5.6c0-3.1-2.6-5.7-5.6-5.7c-3.2,0-5.7,2.6-5.7,5.7
		C493.9,257.1,496.4,259.5,499.6,259.5"/>
	<path class="st0" d="M470.9,303.8c3.1,0,5.6-2.6,5.6-5.7c0-3.2-2.6-5.7-5.6-5.7c-3.2,0-5.7,2.5-5.7,5.7
		C465.3,301.2,467.8,303.8,470.9,303.8"/>
	<path class="st0" d="M180.6,388.5c0.8,0,1.4-0.6,1.4-1.4c0-0.8-0.6-1.5-1.4-1.5c-0.8,0-1.5,0.7-1.5,1.5
		C179.1,387.9,179.8,388.5,180.6,388.5"/>
	<path class="st0" d="M187.2,388.5c0.8,0,1.5-0.6,1.5-1.4c0-0.8-0.6-1.5-1.5-1.5c-0.8,0-1.4,0.7-1.4,1.5
		C185.8,387.9,186.5,388.5,187.2,388.5"/>
	<path class="st0" d="M193.9,388.5c0.8,0,1.5-0.6,1.5-1.4c0-0.8-0.7-1.5-1.5-1.5c-0.8,0-1.4,0.7-1.4,1.5
		C192.5,387.9,193.1,388.5,193.9,388.5"/>
	<path class="st0" d="M216.9,378.8v1.6c-0.7,0-1.3,0.3-1.6,0.8c-0.4,0.6-0.6,1.4-0.6,2.5c0,1.1,0.2,1.9,0.6,2.5
		c0.3,0.5,0.9,0.8,1.6,0.8v1.6c-1.5,0-2.7-0.4-3.5-1.3c-0.8-0.9-1.2-2.1-1.2-3.6c0-1.6,0.4-2.8,1.2-3.7
		C214.3,379.2,215.4,378.8,216.9,378.8 M201.4,379h1.3h1.2v1.5c0.1-0.3,0.3-0.5,0.4-0.7c0.6-0.7,1.4-1.1,2.6-1.1
		c1.1,0,1.9,0.3,2.5,0.9c0.5,0.6,0.8,1.5,0.8,2.8v5.9H209h-1.3v-5.9c0-0.6-0.1-1.1-0.5-1.5c-0.3-0.4-0.7-0.6-1.2-0.6
		c-0.7,0-1.2,0.2-1.6,0.6c-0.3,0.5-0.5,1.1-0.5,2v5.3h-1.2h-1.3V379z M267.9,388.5c-0.5,0.1-1.1,0.1-1.8,0.1c-0.9,0-1.6-0.2-2-0.6
		c-0.4-0.5-0.6-1.1-0.6-2.1v-5.1h-1.7V379h1.7v-1.4l2.5-1.3v2.7h1.9v1.7H266v4.7c0,0.6,0.1,1,0.3,1.3c0.2,0.2,0.5,0.3,1,0.3
		c0.2,0,0.4,0,0.6-0.1V388.5z M258.1,381.8c0-0.5-0.1-0.8-0.4-1c-0.3-0.2-0.6-0.3-1.1-0.3c-0.4,0-0.8,0.1-1.1,0.3
		c-0.3,0.2-0.4,0.5-0.4,0.7c0,0.2,0.1,0.4,0.4,0.6c0.2,0.1,0.7,0.3,1.4,0.5l1.2,0.3c0.9,0.3,1.6,0.6,2,1c0.4,0.4,0.6,1,0.6,1.7
		c0,0.9-0.4,1.7-1.1,2.2c-0.7,0.6-1.7,0.9-2.9,0.9c-1.3,0-2.3-0.3-3-0.8c-0.7-0.6-1.1-1.4-1.1-2.4v0h2.4c0,0.5,0.1,1,0.4,1.2
		c0.3,0.3,0.7,0.4,1.2,0.4c0.5,0,0.9-0.1,1.2-0.3c0.3-0.2,0.5-0.6,0.5-0.9c0-0.3-0.1-0.5-0.3-0.6c-0.2-0.1-0.6-0.3-1.1-0.5l-1.2-0.3
		c-1.1-0.3-1.8-0.6-2.3-1.1c-0.5-0.5-0.7-1-0.7-1.7c0-0.8,0.4-1.5,1.1-2c0.7-0.5,1.6-0.8,2.8-0.8c1.2,0,2.2,0.2,2.9,0.8
		c0.6,0.5,1,1.2,1,2v0.2H258.1z M244.3,384.5c0,0.7,0.1,1.3,0.5,1.8c0.3,0.5,0.7,0.7,1.2,0.7c0.6,0,1.2-0.2,1.5-0.7
		c0.4-0.5,0.5-1.1,0.5-1.9V379h1.3h1.2v9.4h-1.1h-1.2v-1.5c-0.1,0.2-0.2,0.4-0.4,0.6c-0.6,0.8-1.5,1.1-2.6,1.1c-1.2,0-2-0.3-2.6-1
		c-0.6-0.6-0.9-1.6-0.9-2.9V379h1.3h1.2V384.5z M236.9,375h2.7v2.5h-2.7V375z M237,379h1.3h1.2v10.2c0,1-0.2,1.7-0.7,2.1
		c-0.5,0.4-1.2,0.6-2.2,0.6h-1.4v-1.6h0.5c0.4,0,0.8-0.1,1-0.3c0.2-0.2,0.3-0.5,0.3-0.8V379z M229,388.5c-0.6,0.1-1.2,0.1-1.8,0.1
		c-0.9,0-1.6-0.2-2-0.6c-0.4-0.5-0.6-1.1-0.6-2.1v-5.1h-1.7V379h1.7v-1.4l2.5-1.3v2.7h1.9v1.7h-1.9v4.7c0,0.6,0.1,1,0.3,1.3
		c0.2,0.2,0.5,0.3,1,0.3c0.2,0,0.5,0,0.7-0.1V388.5z M216.9,388.6V387c0.7,0,1.2-0.3,1.6-0.8c0.4-0.5,0.6-1.4,0.6-2.4
		c0-1.1-0.2-1.9-0.6-2.5c-0.4-0.5-0.9-0.8-1.6-0.8v-1.6c1.5,0,2.6,0.4,3.4,1.3c0.8,0.9,1.2,2.1,1.2,3.7c0,1.5-0.4,2.7-1.2,3.6
		C219.5,388.2,218.4,388.6,216.9,388.6 M280,382.4v1.6c-0.4,0-0.7,0.2-1,0.4c-0.5,0.3-0.7,0.7-0.7,1.3c0,0.4,0.1,0.7,0.4,1
		c0.3,0.2,0.6,0.4,1.1,0.4h0.2v1.6c-0.3,0.1-0.6,0.1-1,0.1c-1,0-1.8-0.2-2.4-0.7c-0.6-0.5-0.9-1.2-0.9-2.1c0-1.1,0.4-1.9,1.2-2.5
		C277.6,382.8,278.6,382.5,280,382.4 M280,378.8v1.6c-0.5,0-0.8,0.1-1,0.3c-0.2,0.2-0.4,0.5-0.4,1h-2.5c0-1,0.4-1.7,1.1-2.2
		C277.8,379,278.7,378.8,280,378.8 M280,388.5V387c0.5,0,0.9-0.2,1.2-0.6c0.3-0.4,0.5-1,0.6-1.8v-0.7H281c-0.4,0-0.7,0-1.1,0.1v-1.6
		h0.6h1.2V382c0-0.6-0.1-1-0.4-1.2c-0.3-0.2-0.6-0.4-1.2-0.4H280v-1.6h0c1.4,0,2.5,0.3,3.2,0.9c0.7,0.6,1.1,1.5,1.1,2.7v3.4
		c0,0.7,0,1.3,0,1.7c0,0.5,0.1,0.8,0.2,1h-2.4l-0.2-1.2l-0.3,0.4C281.2,388.1,280.6,388.4,280,388.5 M297.9,375v2.1h-0.5h-1.6v3.3h1
		c0.4,0,0.7,0,1.1,0v2.1h-2.1v3.8h1.6h0.4v2.1h-3.4h-1.4V375h1.4H297.9z M297.9,388.4v-2.1c0.8,0,1.4-0.2,1.9-0.5
		c0.5-0.3,0.8-0.8,0.8-1.5c0-0.5-0.2-1-0.7-1.4c-0.5-0.3-1.1-0.5-1.8-0.5h-0.2v-2.1c0.6-0.1,1-0.2,1.3-0.4c0.5-0.2,0.7-0.6,0.7-1.2
		c0-0.6-0.2-1-0.6-1.3c-0.3-0.3-0.8-0.4-1.4-0.5V375h0.3c1.5,0,2.6,0.3,3.4,0.8c0.7,0.6,1.1,1.4,1.1,2.5c0,1.1-0.5,1.9-1.3,2.5
		c-0.4,0.2-0.9,0.4-1.4,0.5c0.7,0.2,1.3,0.4,1.7,0.7c1,0.6,1.5,1.5,1.5,2.7c0,1.2-0.5,2.1-1.3,2.7c-0.9,0.6-2.2,1-3.8,1H297.9z
		 M309.4,378.8v1.6c-0.7,0-1.2,0.3-1.6,0.8c-0.4,0.6-0.5,1.4-0.5,2.5c0,1.1,0.2,1.9,0.5,2.5c0.3,0.5,0.9,0.8,1.6,0.8v1.6
		c-1.5,0-2.6-0.4-3.4-1.3c-0.8-0.9-1.2-2.1-1.2-3.6c0-1.6,0.4-2.8,1.2-3.7C306.8,379.2,307.9,378.8,309.4,378.8 M309.4,388.6V387
		c0.7,0,1.3-0.3,1.6-0.8c0.4-0.5,0.6-1.4,0.6-2.4c0-1.1-0.2-1.9-0.6-2.5c-0.4-0.5-0.9-0.8-1.6-0.8v-1.6c1.5,0,2.7,0.4,3.5,1.3
		c0.8,0.9,1.2,2.1,1.2,3.7c0,1.5-0.4,2.7-1.2,3.6C312,388.2,310.9,388.6,309.4,388.6 M320.5,378.8v1.6c-0.7,0-1.3,0.3-1.6,0.8
		c-0.4,0.6-0.5,1.4-0.5,2.5c0,1.1,0.2,1.9,0.5,2.5c0.3,0.5,0.9,0.8,1.6,0.8v1.6c-1.5,0-2.7-0.4-3.5-1.3c-0.8-0.9-1.2-2.1-1.2-3.6
		c0-1.6,0.4-2.8,1.2-3.7C317.8,379.2,319,378.8,320.5,378.8 M352.5,388.5c-0.6,0.1-1.1,0.1-1.8,0.1c-0.9,0-1.6-0.2-2-0.6
		c-0.4-0.5-0.6-1.1-0.6-2.1v-5.1h-1.7V379h1.7v-1.4l2.5-1.3v2.7h1.9v1.7h-1.9v4.7c0,0.6,0.1,1,0.3,1.3c0.2,0.2,0.5,0.3,1,0.3
		c0.2,0,0.5,0,0.7-0.1V388.5z M342.7,381.8c0-0.5-0.1-0.8-0.4-1c-0.3-0.2-0.6-0.3-1.1-0.3c-0.4,0-0.8,0.1-1.1,0.3
		c-0.3,0.2-0.4,0.5-0.4,0.7c0,0.2,0.1,0.4,0.4,0.6c0.2,0.1,0.7,0.3,1.4,0.5l1.2,0.3c0.9,0.3,1.5,0.6,2,1c0.4,0.4,0.5,1,0.5,1.7
		c0,0.9-0.4,1.7-1.1,2.2c-0.7,0.6-1.7,0.9-2.9,0.9c-1.3,0-2.3-0.3-3-0.8c-0.7-0.6-1.1-1.4-1.1-2.4v0h2.4c0,0.5,0.1,1,0.4,1.2
		c0.3,0.3,0.7,0.4,1.2,0.4c0.5,0,0.9-0.1,1.2-0.3c0.3-0.2,0.5-0.6,0.5-0.9c0-0.3-0.1-0.5-0.3-0.6c-0.2-0.1-0.6-0.3-1.1-0.5l-1.2-0.3
		c-1.1-0.3-1.8-0.6-2.3-1.1c-0.5-0.5-0.7-1-0.7-1.7c0-0.8,0.4-1.5,1.1-2c0.7-0.5,1.6-0.8,2.7-0.8c1.2,0,2.2,0.2,2.9,0.8
		c0.6,0.5,1,1.2,1,2v0.2H342.7z M329.8,388.4h-1.2h-1.3V375h1.3h1.2v7.8l2.8-3.8h1.4h1.4l-3.2,4.1l3.4,5.3h-1.5h-1.5l-3-4.8V388.4z
		 M320.5,388.6V387c0.7,0,1.2-0.3,1.6-0.8c0.4-0.5,0.5-1.4,0.5-2.4c0-1.1-0.2-1.9-0.5-2.5c-0.4-0.5-0.9-0.8-1.6-0.8v-1.6
		c1.5,0,2.6,0.4,3.4,1.3c0.8,0.9,1.2,2.1,1.2,3.7c0,1.5-0.4,2.7-1.2,3.6C323.1,388.2,322,388.6,320.5,388.6 M358.6,378.8v1.6
		c-0.7,0-1.2,0.3-1.6,0.8c-0.4,0.6-0.6,1.4-0.6,2.5c0,1.1,0.2,1.9,0.5,2.5c0.4,0.5,0.9,0.8,1.6,0.8v1.6c-1.5,0-2.6-0.4-3.4-1.3
		c-0.8-0.9-1.2-2.1-1.2-3.6c0-1.6,0.4-2.8,1.2-3.7C356,379.2,357.2,378.8,358.6,378.8 M365.4,379h1.2h1.2v1.5l0.3-0.5
		c0.5-0.9,1.4-1.3,2.4-1.3h0v2.4h-0.1c-0.8,0-1.4,0.2-1.9,0.6c-0.5,0.5-0.7,1.1-0.7,1.8v4.8h-1.2h-1.3V379z M358.6,388.6V387
		c0.7,0,1.2-0.3,1.6-0.8c0.4-0.5,0.6-1.4,0.6-2.4c0-1.1-0.2-1.9-0.6-2.5c-0.4-0.5-0.9-0.8-1.6-0.8v-1.6c1.5,0,2.6,0.4,3.5,1.3
		c0.8,0.9,1.2,2.1,1.2,3.7c0,1.5-0.4,2.7-1.2,3.6C361.3,388.2,360.1,388.6,358.6,388.6 M376.2,378.8v1.6c-0.7,0-1.2,0.3-1.5,0.8
		c-0.2,0.3-0.3,0.8-0.4,1.4h1.9v1.7h-1.9c0,0.9,0.2,1.5,0.5,1.9c0.3,0.5,0.8,0.7,1.4,0.7h0v1.6h0c-1.4,0-2.5-0.4-3.3-1.3
		c-0.8-0.9-1.1-2.1-1.1-3.6c0-1.5,0.4-2.7,1.2-3.6C373.8,379.3,374.9,378.8,376.2,378.8L376.2,378.8z M376.2,384.3v-1.7h1.8
		c0-0.7-0.2-1.2-0.4-1.5c-0.3-0.5-0.7-0.7-1.5-0.7v-1.6c1.4,0,2.5,0.4,3.2,1.2c0.7,0.8,1.1,2.1,1.1,3.7v0v0.6H376.2z M376.2,388.6
		V387c0.5,0,0.9-0.1,1.2-0.4c0.3-0.2,0.4-0.6,0.4-1.1h2.5c-0.1,1-0.5,1.8-1.2,2.3C378.4,388.4,377.4,388.6,376.2,388.6"/>
</g>
</svg>
